<mxfile>
    <diagram id="FfXvzZVFIR_b7pxUwTej" name="Page-1">
        <mxGraphModel dx="734" dy="350" grid="1" gridSize="10" guides="1" tooltips="1" connect="1" arrows="1" fold="1" page="1" pageScale="1" pageWidth="827" pageHeight="1169" math="0" shadow="0">
            <root>
                <mxCell id="0"/>
                <mxCell id="1" parent="0"/>
                <mxCell id="8" value="Composite" style="swimlane;fontStyle=1;align=center;verticalAlign=top;childLayout=stackLayout;horizontal=1;startSize=26;horizontalStack=0;resizeParent=1;resizeParentMax=0;resizeLast=0;collapsible=1;marginBottom=0;" vertex="1" parent="1">
                    <mxGeometry x="360" y="240" width="160" height="106" as="geometry"/>
                </mxCell>
                <mxCell id="9" value="- children ;" style="text;strokeColor=none;fillColor=none;align=left;verticalAlign=top;spacingLeft=4;spacingRight=4;overflow=hidden;rotatable=0;points=[[0,0.5],[1,0.5]];portConstraint=eastwest;" vertex="1" parent="8">
                    <mxGeometry y="26" width="160" height="26" as="geometry"/>
                </mxCell>
                <mxCell id="10" value="" style="line;strokeWidth=1;fillColor=none;align=left;verticalAlign=middle;spacingTop=-1;spacingLeft=3;spacingRight=3;rotatable=0;labelPosition=right;points=[];portConstraint=eastwest;" vertex="1" parent="8">
                    <mxGeometry y="52" width="160" height="8" as="geometry"/>
                </mxCell>
                <mxCell id="11" value="+ add () ;" style="text;strokeColor=none;fillColor=none;align=left;verticalAlign=top;spacingLeft=4;spacingRight=4;overflow=hidden;rotatable=0;points=[[0,0.5],[1,0.5]];portConstraint=eastwest;fontStyle=0" vertex="1" parent="8">
                    <mxGeometry y="60" width="160" height="20" as="geometry"/>
                </mxCell>
                <mxCell id="12" value="+ show () ;" style="text;strokeColor=none;fillColor=none;align=left;verticalAlign=top;spacingLeft=4;spacingRight=4;overflow=hidden;rotatable=0;points=[[0,0.5],[1,0.5]];portConstraint=eastwest;fontStyle=0" vertex="1" parent="8">
                    <mxGeometry y="80" width="160" height="26" as="geometry"/>
                </mxCell>
                <mxCell id="13" value="Sordier" style="swimlane;fontStyle=1;align=center;verticalAlign=top;childLayout=stackLayout;horizontal=1;startSize=26;horizontalStack=0;resizeParent=1;resizeParentMax=0;resizeLast=0;collapsible=1;marginBottom=0;" vertex="1" parent="1">
                    <mxGeometry x="130" y="240" width="160" height="60" as="geometry"/>
                </mxCell>
                <mxCell id="15" value="" style="line;strokeWidth=1;fillColor=none;align=left;verticalAlign=middle;spacingTop=-1;spacingLeft=3;spacingRight=3;rotatable=0;labelPosition=right;points=[];portConstraint=eastwest;" vertex="1" parent="13">
                    <mxGeometry y="26" width="160" height="8" as="geometry"/>
                </mxCell>
                <mxCell id="16" value="+ show () ;" style="text;strokeColor=none;fillColor=none;align=left;verticalAlign=top;spacingLeft=4;spacingRight=4;overflow=hidden;rotatable=0;points=[[0,0.5],[1,0.5]];portConstraint=eastwest;" vertex="1" parent="13">
                    <mxGeometry y="34" width="160" height="26" as="geometry"/>
                </mxCell>
                <mxCell id="17" value="«interface»&lt;br&gt;&lt;b&gt;Army&lt;/b&gt;" style="html=1;" vertex="1" parent="1">
                    <mxGeometry x="260" y="100" width="130" height="50" as="geometry"/>
                </mxCell>
                <mxCell id="18" value="+ show ();" style="html=1;" vertex="1" parent="1">
                    <mxGeometry x="260" y="150" width="130" height="30" as="geometry"/>
                </mxCell>
                <mxCell id="20" value="" style="endArrow=block;dashed=1;endFill=0;endSize=12;html=1;entryX=0.655;entryY=1.04;entryDx=0;entryDy=0;entryPerimeter=0;exitX=0.5;exitY=0;exitDx=0;exitDy=0;" edge="1" parent="1" source="8" target="18">
                    <mxGeometry width="160" relative="1" as="geometry">
                        <mxPoint x="220" y="250" as="sourcePoint"/>
                        <mxPoint x="327.20000000000005" y="195.19000000000005" as="targetPoint"/>
                    </mxGeometry>
                </mxCell>
                <mxCell id="21" value="" style="endArrow=block;dashed=1;endFill=0;endSize=12;html=1;entryX=0.5;entryY=1;entryDx=0;entryDy=0;exitX=0.75;exitY=0;exitDx=0;exitDy=0;" edge="1" parent="1" source="13" target="18">
                    <mxGeometry width="160" relative="1" as="geometry">
                        <mxPoint x="230" y="260" as="sourcePoint"/>
                        <mxPoint x="337.20000000000005" y="205.19000000000005" as="targetPoint"/>
                    </mxGeometry>
                </mxCell>
                <mxCell id="22" value="1" style="endArrow=open;html=1;endSize=12;startArrow=diamondThin;startSize=14;startFill=1;edgeStyle=orthogonalEdgeStyle;align=left;verticalAlign=bottom;exitX=1;exitY=0.5;exitDx=0;exitDy=0;entryX=1;entryY=0.4;entryDx=0;entryDy=0;entryPerimeter=0;textOpacity=0;" edge="1" parent="1" source="9" target="17">
                    <mxGeometry x="-1" y="3" relative="1" as="geometry">
                        <mxPoint x="490" y="120" as="sourcePoint"/>
                        <mxPoint x="400" y="120" as="targetPoint"/>
                        <Array as="points">
                            <mxPoint x="570" y="279"/>
                            <mxPoint x="570" y="120"/>
                        </Array>
                    </mxGeometry>
                </mxCell>
            </root>
        </mxGraphModel>
    </diagram>
</mxfile>